<svg fill="none" height="62" viewBox="0 0 168 62" width="168" xmlns="http://www.w3.org/2000/svg"><path d="m48.059 52.2571h-10.192l3.016-12.064h-31.25196l2.49596-9.984 10.192-12.064h11.804l-10.192 12.064h19.448l3.016-12.064h10.192zm35.6274-24.18h-15.444l2.496-9.932h41.0276l-2.496 9.932h-15.4436l-6.032 24.18h-10.14zm75.1566 24.18h-10.192l3.016-12.012h-21.06l-3.016 12.012h-10.192l8.528-34.112h10.192l-3.068 12.116h21.06l3.068-12.116h10.192z" fill="#9fa6ff"/><path d="m43.4305 47h-10.192l3.016-12.064h-31.252l2.496-9.984 10.192-12.064h11.804l-10.192 12.064h19.448l3.016-12.064h10.192zm35.6273-24.18h-15.444l2.496-9.932h41.0282l-2.496 9.932h-15.4442l-6.032 24.18h-10.14zm75.1572 24.18h-10.192l3.016-12.012h-21.06l-3.016 12.012h-10.192l8.528-34.112h10.192l-3.068 12.116h21.06l3.068-12.116h10.192z" fill="#55ffad"/><path d="m44.1162 49.6287h-10.192l3.016-12.064h-31.25203l2.496-9.984 10.19203-12.064h11.804l-10.192 12.064h19.448l3.016-12.064h10.192zm35.6273-24.18h-15.444l2.496-9.932h41.0275l-2.496 9.932h-15.4435l-6.032 24.18h-10.14zm75.1575 24.18h-10.192l3.016-12.012h-21.06l-3.016 12.012h-10.192l8.528-34.112h10.192l-3.068 12.116h21.06l3.068-12.116h10.192z" fill="#fff"/></svg>