<svg fill="none" height="336" viewBox="0 0 530 336" width="530" xmlns="http://www.w3.org/2000/svg"><path d="m265 .518188 48.315 73.511812 107.448-41.5222-29.273 77.4222 125.54 6.328-95.68 51.76 95.68 51.761-125.54 6.327 29.273 77.423-107.448-41.523-48.315 73.512-48.315-73.512-107.448 41.523 29.273-77.423-125.54-6.327 95.68-51.761-95.68-51.76 125.54-6.328-29.273-77.4222 107.448 41.5222z" fill="#55ffad"/><g fill="#06102b"><path d="m144.763 106.331c.76-3.042 1.462-6.2 2.193-9.4287.411-1.8146 2.026-3.0975 3.887-3.0975h22.041c-.368 2.8728-.79 5.908-1.226 9.0662-.274 1.981-1.967 3.46-3.968 3.46zm37.728 24.65c2.084-12.601 4.228-26.932 5.834-39.7713.731-5.837-3.855-10.9326-9.737-10.9326h-2.602l-25.986 2.2411c.801-3.8078 2.269-9.8567 2.969-13.5643h49.336v-13.9285h-86.563v13.9285h21.316c-2.169 11.9071-5.217 25.4298-8.291 37.1121-1.771 6.728 3.456 13.41 10.404 13.05l30.829-1.598c-.6 3.808-2.12 9.856-2.821 13.463h-54.339v14.129h92.367v-14.129z"/><path d="m250.74 126.472h17.412c-.5.801-1 1.503-1.501 2.204-5.304.401-10.607.802-15.911 1.203zm-18.113-21.544v-3.007h5.003v3.007zm0-14.2295h5.003v3.0061h-5.003zm23.016 0v3.0061h-4.903v-3.0061zm0 14.2295h-4.903v-3.007h4.903zm35.626-30.7634c.1-6.4131.1-13.2271.1-20.3417h-13.91v21.1953l-8.206.5v13.5l7.747-.5c-.701 16.1328-2.543 27.9328-8.848 37.9538v-10.121h-17.412v-2.605h6.812c5.523 0 10-4.477 10-10v-11.8656c0-5.5228-4.477-10-10-10h-6.812v-2.5051h18.113v-10.3212h-18.113v-3.5072c6.204-.7014 12.108-1.503 17.312-2.6053l-6.104-10.722c-11.408 2.4049-28.321 4.1084-43.331 4.8099 1.3 2.8057 2.702 7.315 3.102 10.2209 5.103-.1002 10.507-.3006 15.911-.6012v2.4049h-18.813v10.3212h18.813v2.5051h-6.412c-5.522 0-10 4.4772-10 10v11.8656c0 5.523 4.478 10 10 10h6.412v2.605h-16.812v10.121h16.812v4.309c-7.405.501-14.11.901-19.614 1.202l1.098 8.242c.282 2.117 2.175 3.64 4.303 3.455 11.172-.969 25.112-2.235 38.731-3.58 2.502 2.505 5.104 5.611 6.405 7.916 16.411-13.327 21.046-32.942 22.447-59.9978l5.973-.5263c-.5 30.0621-1.301 41.7861-3.202 44.3911-1.001 1.403-1.902 1.804-3.403 1.804-2.001 0-5.404 0-9.406-.401 1.678 2.85 2.984 6.767 3.685 10.233.408 2.021 2.091 3.638 4.152 3.642 3.437.007 6.593-.127 8.975-.648 3.502-.802 6.004-2.004 8.506-5.812 3.202-4.71 3.903-19.741 4.703-60.3237 0-4.2304-3.616-7.5571-7.832-7.205z"/><path d="m359.618 105.829h14.711v-14.0283h-42.831v14.0283h13.61v21.344c-6.705 1.002-12.91 1.904-17.813 2.505l2.941 11.1c.541 2.041 2.574 3.31 4.645 2.9 12.586-2.495 28.306-5.592 42.95-8.689l-1-12.926c-5.704 1.002-11.509 1.904-17.213 2.805zm58.542-23.5478v-14.2291h-8.706l7.005-6.0123c-1.502-1.7828-3.901-3.9373-6.458-5.9985-3.481-2.806-8.432-2.5613-11.882.2819l-3.776 3.1112c3.203 2.4049 7.005 5.7117 9.707 8.6177h-12.709c-.1-5.2107-.1-10.5216.1-15.7323h-15.711c0 5.2107.1 10.5216.2 15.7323h-48.335v14.2291h49.035c2.202 34.6708 9.307 64.8328 27.02 64.8328 10.508 0 15.311-4.409 17.413-24.45-5.455-1.998-12.69 1.209-14.378 6.767-.483 1.592-1.059 2.352-1.734 2.352-5.904 0-11.108-22.446-13.009-49.5018z"/><path d="m60.4025 247.36c-.4003 8.117-1.301 17.035-3.4025 22.747 1.3822.373 3.4422 1 5.4149 1.701 2.3801.847 5.2095-.342 5.7616-2.807 1.2885-5.754 2.1482-12.994 2.5334-19.937zm11.0079 1.604c.9006 6.613 1.8013 15.231 1.9014 21.043l6.7972-1.856c1.8152-.496 3.0436-2.189 2.8913-4.065-.4371-5.38-1.292-12.068-2.2832-17.527zm53.9386-1.002c-1.301 0-1.501-.902-1.501-2.906v-3.908h11.809v-10.722h-10.608l.507-.178c1.973-.691 3.023-2.769 2.24-4.707-.315-.78-.645-1.576-.946-2.33h8.707v-10.722h-3.103c1.001-3.507 2.102-7.716 3.403-11.824l-9.507-2.305c-.5 4.108-1.701 9.92-2.702 14.129h-6.605l4.904-1.703c-.4-3.407-1.801-8.718-3.503-12.626l-8.005 2.605c1.401 3.607 2.601 8.217 3.002 11.724h-3.703v10.722h13.31l-6.605 2.004c.6 1.603 1.301 3.507 1.801 5.211h-8.406v10.722h2.602v3.808c0 8.918 1.901 12.625 11.508 12.625h5.804c.966 0 2.016-.021 3.015-.102 1.846-.15 2.901-1.893 2.741-3.738-.188-2.18-.32-4.569-.452-6.481-1.401.501-4.103.702-5.604.702zm25.018-53.731c0-5.523-4.477-10-10-10h-34.839c-5.523 0-10.0002 4.477-10.0002 10v41.205c-1.401-4.409-3.4025-10.121-5.2038-14.63l-9.1065 3.507c.6004 1.704 1.2008 3.608 1.8013 5.512l-7.3053 1.002c7.2052-9.019 14.2102-19.741 19.414-30.162l-10.3074-6.814c-2.0015 4.81-4.4032 9.72-6.905 14.229l-1.1471.068c-1.6385.096-2.699-1.72-1.8465-3.122 3.7444-6.16 7.2836-13.104 9.8986-19.693l-11.4083-4.809c-3.1022 10.421-8.7062 21.343-10.6076 24.149-1.1731 1.892-2.2612 3.317-3.4303 4.247-.9389.747-1.555 2.034-1.1298 3.155.8409 2.219 1.7167 4.873 2.3627 6.937.3728 1.192 1.7398 1.8 2.9471 1.482 1.5227-.402 3.8159-.811 7.6563-1.291-2.3016 3.507-4.203 6.112-5.3038 7.415-2.2399 2.749-3.906 4.715-5.6762 5.86-1.033.667-1.6878 1.976-1.245 3.123.8338 2.161 1.7207 4.746 2.3377 6.8.3817 1.271 1.8625 1.964 3.1272 1.562 2.8867-.919 8.3574-2.065 21.5708-4.318.0997.466.2105.921.3213 1.361.314 1.247 1.7077 1.96 2.8892 1.451l6.2964-2.712v19.54c-1.2009-4.81-3.1022-10.922-4.9035-15.933l-8.7063 3.107c1.9013 6.012 4.1029 13.928 4.9035 19.139l8.7063-3.407v13.327h12.7092v-78.761h29.221v64.933c0 1.303-.4 1.703-1.701 1.804-1.201 0-4.904 0-7.906-.201 1.053 2.25 2.155 5.633 2.858 8.629.463 1.975 2.175 3.511 4.203 3.452 4.681-.135 8.225-.643 11.052-2.261 3.403-2.104 4.403-5.311 4.403-11.323z"/><path d="m192.798 240.346h38.328v3.507h-38.328zm0-13.728h38.328v3.507h-38.328zm0-13.628h38.328v3.507h-38.328zm44.339 41.786c5.523 0 10-4.477 10-10v-32.708c0-5.523-4.477-10-10-10h-18.22c.5-1.403 1-2.806 1.501-4.309h33.424v-13.227h-84.261v13.227h34.025c-.2 1.403-.401 2.906-.701 4.309h-15.318c-5.523 0-10 4.477-10 10v32.708c0 5.523 4.477 10 10 10h3.81c-7.305 3.507-17.513 7.315-25.819 9.319 2.034 1.913 4.447 4.509 6.561 6.971 2.151 2.503 5.545 3.682 8.687 2.674 9.433-3.024 20.258-7.413 27.983-11.449l-9.206-7.515h24.818l-8.907 7.615c8.574 3.049 17.533 7.191 24 10.624 2.678 1.421 5.927 1.36 8.469-.292l10.662-6.925c-6.504-3.106-17.112-7.415-27.019-11.022z"/><path d="m308.181 210.986h-31.423v10.822h31.423v-7.716c2.702 2.606 5.904 6.514 7.305 8.718 12.109-6.112 15.412-16.534 15.912-26.153h9.307v7.615c0 11.424 2.101 16.434 13.109 16.434h4.503c2.202 0 4.504-.1 6.005-.902-.401-3.307-.701-8.317-.901-11.924-1.301.501-3.703.801-5.204.801h-2.902c-1.101 0-1.301-1.302-1.301-4.208v-11.244c0-5.523-4.477-10-10-10h-15.826c-5.523 0-10 4.477-10 10v.722c0 6.012-.9 12.325-10.007 17.135zm4.103-14.329h-17.713l6.005-3.207c-1.331-3.375-3.841-8.168-6.276-12.214-.522-.868-1.62-1.187-2.536-.753l-9.602 4.55c1.902 3.507 4.103 7.916 5.604 11.624h-15.311v11.323h39.829zm-3.803 28.157h-31.723v10.822h31.723zm36.427 12.025c-2.402 4.409-5.304 8.217-8.907 11.524-4.203-3.307-7.705-7.215-10.307-11.524zm-49.036 21.745h-6.705v-8.217h6.705zm59.443-35.774-3.502.501h-41.43v13.528h10.107l-8.006 2.806c3.403 6.313 7.306 11.824 11.909 16.634-4.804 2.405-10.208 4.208-16.112 5.511v-12.847c0-5.523-4.477-10-10-10h-11.322c-5.523 0-10 4.477-10 10v25.172h12.208v-4.008h19.114v-5.611c2.102 3.306 4.203 7.615 5.304 10.621 8.506-2.204 16.012-5.21 22.616-9.319 4.788 2.997 10.135 5.433 16.084 7.309 3.596 1.135 7.383-.734 9.392-3.926 1.836-2.918 3.967-5.85 5.747-7.692-7.005-1.202-13.41-3.206-19.014-5.711 5.27-5.666 9.46-12.713 12.523-21.33 1.61-4.528-.769-9.392-5.129-11.412z"/><path d="m424.365 196.657h-19.814l6.004-3.207c-1.331-3.375-3.841-8.168-6.275-12.214-.523-.868-1.62-1.187-2.537-.753l-9.601 4.55c1.901 3.507 4.103 7.916 5.604 11.624h-16.212v11.323h42.831zm-4.203 25.151v-10.822h-34.325v10.822zm-.2 3.006h-34.125v10.822h34.125zm-12.009 25.553v8.217h-9.707v-8.217zm12.409-1.424c0-5.523-4.477-10-10-10h-14.325c-5.523 0-10 4.477-10 10v25.172h12.209v-4.008h22.116zm52.638-36.053h-17.513v-30.863h-15.211v30.863h-16.411v14.329h16.411v48.199h15.211v-48.199h17.513z"/></g></svg>