<svg fill="none" height="206" viewBox="0 0 220 206" width="220" xmlns="http://www.w3.org/2000/svg" xmlns:xlink="http://www.w3.org/1999/xlink"><filter id="a" color-interpolation-filters="sRGB" filterUnits="userSpaceOnUse" height="31" width="31" x=".609863" y="0"><feFlood flood-opacity="0" result="BackgroundImageFix"/><feColorMatrix in="SourceAlpha" result="hardAlpha" type="matrix" values="0 0 0 0 0 0 0 0 0 0 0 0 0 0 0 0 0 0 127 0"/><feOffset/><feGaussianBlur stdDeviation="5"/><feComposite in2="hardAlpha" operator="out"/><feColorMatrix type="matrix" values="0 0 0 0 0.615686 0 0 0 0 0.643137 0 0 0 0 1 0 0 0 0.6 0"/><feBlend in2="BackgroundImageFix" mode="normal" result="effect1_dropShadow_99_5457"/><feBlend in="SourceGraphic" in2="effect1_dropShadow_99_5457" mode="normal" result="shape"/></filter><filter id="b" color-interpolation-filters="sRGB" filterUnits="userSpaceOnUse" height="56" width="49.9521" x="169.658" y="150"><feFlood flood-opacity="0" result="BackgroundImageFix"/><feColorMatrix in="SourceAlpha" result="hardAlpha" type="matrix" values="0 0 0 0 0 0 0 0 0 0 0 0 0 0 0 0 0 0 127 0"/><feOffset/><feGaussianBlur stdDeviation="5"/><feComposite in2="hardAlpha" operator="out"/><feColorMatrix type="matrix" values="0 0 0 0 0.615686 0 0 0 0 0.643137 0 0 0 0 1 0 0 0 0.6 0"/><feBlend in2="BackgroundImageFix" mode="normal" result="effect1_dropShadow_99_5457"/><feBlend in="SourceGraphic" in2="effect1_dropShadow_99_5457" mode="normal" result="shape"/></filter><g fill="#fff"><circle cx="108.61" cy="178" r="3"/><circle cx="126.61" cy="178" r="3"/><circle cx="144.61" cy="178" r="3"/><circle cx="162.61" cy="178" r="3"/><circle cx="90.6099" cy="16" r="3"/><circle cx="90.6099" cy="34" r="3"/><circle cx="90.6099" cy="52" r="3"/><circle cx="90.6099" cy="70" r="3"/><circle cx="90.6099" cy="88" r="3"/><circle cx="90.6099" cy="106" r="3"/><circle cx="90.6099" cy="124" r="3"/><circle cx="90.6099" cy="142" r="3"/><circle cx="90.6099" cy="160" r="3"/><circle cx="90.6099" cy="178" r="3"/></g><g filter="url(#a)"><circle cx="16.1099" cy="15.5" fill="#9da4ff" r="5.5"/></g><circle cx="36.6099" cy="16" fill="#fff" r="3"/><circle cx="54.6099" cy="16" fill="#fff" r="3"/><circle cx="72.6099" cy="16" fill="#fff" r="3"/><g filter="url(#b)"><path d="m180.35 166.633c-.778-.785-.778-2.061.088-2.746 2.252-1.783 4.905-3.007 7.743-3.557 3.495-.679 7.113-.305 10.395 1.073 3.283 1.378 6.083 3.698 8.047 6.667 1.964 2.97 3.003 6.455 2.987 10.015-.017 3.56-1.089 7.035-3.081 9.986-1.992 2.95-4.814 5.244-8.109 6.591-3.296 1.347-6.916 1.686-10.405.975-2.832-.577-5.475-1.826-7.709-3.629-.86-.694-.848-1.97-.063-2.748l9.946-9.852c.785-.778.791-2.044.013-2.829z" fill="#9da4ff"/></g></svg>