<svg fill="none" height="144" viewBox="0 0 145 144" width="145" xmlns="http://www.w3.org/2000/svg" xmlns:xlink="http://www.w3.org/1999/xlink"><linearGradient id="a" gradientUnits="userSpaceOnUse" x1="73.4353" x2="73.4353" y1="21.2192" y2="130.173"><stop offset="0" stop-color="#9fa6ff"/><stop offset="1" stop-color="#7a84ff"/></linearGradient><linearGradient id="b" gradientUnits="userSpaceOnUse" x1="130.159" x2="29.8083" y1="49.8148" y2="110.483"><stop offset="0" stop-color="#7e87ff"/><stop offset=".932292" stop-color="#9da4ff"/></linearGradient><circle cx="73.4353" cy="75.6963" fill="url(#a)" r="54.0446" stroke="url(#b)" stroke-width=".865103" transform="matrix(.95908155 .28312997 -.28312997 .95908155 24.436749 -17.694359)"/><g fill="#000"><path d="m59.6654 90.5977.518.6226.2293-.7768 2.1298-7.2142.0716-.2426-.1763-.1814-4.6096-4.7426-3.3267-3.5752 4.7486-1.2405 6.4285-1.4287.2488-.0554.0722-.2444 2.1297-7.2143.2293-.7768-.7731.2415-18.0396 5.6332-.2205.0688-.0654.2216-1.765 5.9789-.0654.2216.1477.1776zm3.2221 4.1134-.2065.4532.4776.141 3.5787 1.0564.3603.1064.1558-.3419 14.3715-31.5501.2064-.4531-.4776-.141-3.5786-1.0565-.3604-.1063-.1557.3419zm13.8059.5386-.2293.7768.7731-.2414 18.0395-5.6332.2205-.0689.0655-.2215 1.765-5.979.0654-.2215-.1478-.1776-12.088-14.5272-.518-.6226-.2294.7768-2.1297 7.2143-.0721.2444.1789.1816 4.6219 4.691 3.3135 3.6204-4.7349 1.1954-6.4463 1.4789-.2465.0565-.0716.2426z" stroke="#000" stroke-width=".865103"/><path d="m29.6848 70.5015-1.912-.1144-.3849 6.4314 6.0838.3641.1352-2.2597-1.6078-.0962.2184-3.6503-1.912-.1144-.2185 3.6503-.6518-.039z"/><path d="m32.061 61.8675c-1.314-.344-2.4977.327-2.8484 1.6662l-1.213 4.6325 5.8959 1.5439.5734-2.1899-1.3813-.3617.3374-1.2887 1.5953-.4553.6793-2.5942-1.9664.6011c-.2092-.7478-.8131-1.3289-1.6722-1.5539zm-1.635 4.594.5293-2.0214c.0574-.219.128-.4885.5323-.3827.4042.1059.3337.3754.2763.5944l-.5293 2.0215z"/><path d="m37.6939 58.4922c1.1856-2.3957.7785-3.8892-1.1177-4.8277-1.8884-.9346-3.3151-.3486-4.5007 2.047-1.1895 2.4034-.7941 3.8815 1.1021 4.8199 1.904.9424 3.3268.3642 4.5163-2.0392zm-1.7168-.8497c-.5908 1.1939-1.2101 1.1497-1.7954.8601-.5774-.2858-.9842-.7397-.3895-1.9414.5948-1.2017 1.2102-1.1497 1.7798-.8678.5775.2858.996.7552.4051 1.9491z"/><path d="m38.2395 46.3274 2.8094 2.2444-4.4506-.1901-1.8477 2.3129 4.7617 3.8041 1.413-1.7686-2.8094-2.2445 4.4506.1901 1.8477-2.3128-4.7617-3.8041z"/><path d="m47.0416 38.1087-5.8061 4.7281 1.2095 1.4853 2.0254-1.6494 2.6389 3.2407 1.7554-1.4294-2.639-3.2407 2.0254-1.6493z"/><path d="m49.8661 38.8691.8037 1.5447 6.179-3.215-.8037-1.5447z"/><path d="m63.7138 32.6023-.4911-1.6707-6.1814 1.8171 1.7189 5.8473 6.1814-1.8171-.4911-1.6706-4.0096 1.1786-.1596-.543 4.0096-1.1786-.4174-1.4201-4.0096 1.1787-.1596-.543z"/><path d="m70.8042 29.9095.2905 3.5842-2.9113-3.3717-2.9506.2391.4923 6.0748 2.2563-.1829-.2904-3.5841 2.9113 3.3717 2.9506-.2392-.4924-6.0747z"/><path d="m79.915 30.2866-4.4877-.599-.8063 6.0411 4.4876.599c1.4585.1947 2.9598-.5887 3.2339-2.6427.2742-2.0539-.969-3.2037-2.4275-3.3984zm-1.2433 4.0503-1.5535-.2073.2996-2.2438 1.5534.2073c.4833.0645 1.2772.1705 1.1275 1.2924-.1498 1.1219-.9437 1.016-1.427.9514z"/><path d="m92.714 34.0166-4.1314-1.852-2.493 5.5614 4.1314 1.852c1.3427.6019 3.0048.2784 3.8524-1.6125.8477-1.8909-.0167-3.347-1.3594-3.9489zm-2.3451 3.5286-1.4301-.641.926-2.0657 1.4301.641c.4449.1995 1.1758.5271.7128 1.56-.463 1.0328-1.1939.7052-1.6388.5057z"/><path d="m101.407 41.3281 1.009-1.4191-5.2503-3.7339-3.532 4.967 5.2507 3.7338 1.0092-1.4191-3.4059-2.422.3279-.4612 3.4064 2.422.857-1.2063-3.4056-2.4219.328-.4612z"/><path d="m108.036 45.3619-4.483 1.8275 2.147-4.3394-1.696-1.8234-2.743 5.9997 2.289 2.4609 6.182-2.3019z"/><path d="m112.816 55.2159 1.489-.903-3.341-5.509-5.211 3.1606 3.341 5.5089 1.489-.903-2.167-3.5733.484-.2935 2.167 3.5733 1.266-.7675-2.168-3.5734.484-.2935z"/><path d="m112.154 59.6426 3.907-1.4841-.804-2.1162-5.697 2.1643 2.226 5.8602 1.791-.6802z"/><path d="m112.736 68.5771c.455 2.634 1.664 3.6004 3.749 3.2405 2.077-.3584 2.883-1.6728 2.429-4.3068-.456-2.6426-1.647-3.6033-3.732-3.2434-2.093.3613-2.902 1.6671-2.446 4.3097zm1.888-.3258c-.227-1.3127.3-1.6421.943-1.7532.635-.1096 1.231.0172 1.459 1.3385s-.299 1.6421-.926 1.7502c-.635.1096-1.25-.0228-1.476-1.3355z"/><path d="m119.533 78.1227.177-4.7854-6.091-.2245-.083 2.2622 1.427.0526-.093 2.5233c-.051 1.3834.888 2.3677 2.246 2.4177 1.357.05 2.366-.8625 2.417-2.2459zm-2.733-.5364.077-2.0881.835.0307-.077 2.0882c-.008.2262-.018.5047-.436.4893s-.407-.2938-.399-.5201z"/><path d="m116.022 88.6954 1.694.402 1.488-6.2689-5.93-1.4069-1.488 6.2689 1.695.402.964-4.0664.551.1307-.965 4.0663 1.44.3417.965-4.0663.551.1306z"/><path d="m112.141 96.5898c1.237.5603 2.517.0981 3.088-1.163l1.975-4.3622-5.552-2.5143-.934 2.0622 1.301.589-.549 1.2135-1.649.1803-1.107 2.4428 2.04-.2615c.08.7723.578 1.4468 1.387 1.8132zm2.384-4.2532-.862 1.9035c-.093.2062-.208.46-.589.2876-.38-.1724-.265-.4262-.172-.6325l.862-1.9035z"/><path d="m110.144 97.124c-1.464-1.066-2.629-.191-4.1 1.8291-1.471 2.0199-1.946 3.3969-.587 4.3869 1.288.937 2.298-.169 3.79-2.055.821-1.039.942-1.22 1.132-1.082s.104.345-.521 1.204c-.651.894-1.015 1.275-1.275 1.086l-1.333 1.83c1.26.917 2.514.171 3.913-1.75 1.415-1.943 1.724-3.344.64-4.1333-1.147-.8353-2.133-.2502-3.823 1.9223-.876 1.129-1.022 1.271-1.233 1.117-.183-.133-.136-.347.654-1.431.845-1.1609 1.171-1.2683 1.41-1.094z"/></g></svg>