<svg fill="none" height="44" viewBox="0 0 633 44" width="633" xmlns="http://www.w3.org/2000/svg"><path d="m8.028 7.31819h-6.48v25.20001h6.48zm28.8636 0v18.93601l-17.208-18.93601h-8.784v25.20001h6.48v-18.9l17.172 18.9h8.82v-25.20001zm39.5884 0h-30.96v5.43601h12.24v19.764h6.48v-19.764h12.24zm28.771 5.14801v-5.14801h-26.6405v25.20001h26.6405v-5.148h-20.1605v-5.112h20.1605v-4.68h-20.1605v-5.112zm31.811 4.104c0-5.616-3.924-9.25201-9.648-9.25201h-19.8v25.20001h6.48v-6.732h10.44l4.068 6.732h7.632l-4.644-7.488c3.384-1.332 5.472-4.356 5.472-8.46zm-22.968-3.816h11.52c1.944 0 4.968 0 4.968 3.816 0 3.78-3.024 3.78-4.968 3.78h-11.52zm51.112 19.764h7.164l-13.032-25.20001h-8.748l-12.996 25.20001h7.128l2.7-5.364h15.084zm-15.372-10.188 5.148-10.224 5.112 10.224zm20.842-2.448c0 8.388 4.752 12.996 15.84 12.996 10.044 0 15.084-3.852 15.732-11.16h-6.588c-.612 4.104-3.78 5.724-9.144 5.724-6.552 0-9.36-2.376-9.36-7.56 0-5.148 2.772-7.488 9.36-7.488 5.4 0 8.532 1.584 9.144 5.652h6.588c-.648-7.272-5.688-11.08801-15.732-11.08801-11.088 0-15.84 4.57201-15.84 12.92401zm62.917-12.56401h-30.96v5.43601h12.24v19.764h6.48v-19.764h12.24zm8.611 0h-6.48v25.20001h6.48zm29.172 0-10.116 20.41201-10.116-20.41201h-7.272l12.96 25.20001h8.856l12.96-25.20001zm35.46 5.14801v-5.14801h-26.64v25.20001h26.64v-5.148h-20.16v-5.112h20.16v-4.68h-20.16v-5.112zm64.456-5.14801-7.416 19.83601-7.92-19.83601h-7.956l-7.884 19.80001-7.452-19.80001h-6.984l9.936 25.20001h8.928l7.452-18.972 7.416 18.972h8.964l9.936-25.20001zm35.177 5.14801v-5.14801h-26.64v25.20001h26.64v-5.148h-20.16v-5.112h20.16v-4.68h-20.16v-5.112zm30.048 6.372c1.26-1.404 1.98-3.132 1.98-4.896 0-3.708-1.764-6.62401-7.488-6.62401h-22.176v25.20001h23.04c5.724 0 8.208-3.096 8.208-7.344 0-2.916-1.404-5.004-3.564-6.336zm-21.204-6.84h13.356c1.764 0 3.348 0 3.348 2.592 0 2.628-1.584 2.628-3.312 2.628h-.036-13.356zm14.976 15.516h-14.976v-5.328h14.976c1.728 0 3.312 0 3.312 2.664s-1.584 2.664-3.312 2.664zm47.281-20.19601h-18.288v25.20001h18.288c6.516 0 12.24-4.032 12.24-12.6s-5.724-12.60001-12.24-12.60001zm-2.448 19.76401h-9.36v-14.328h9.36c4.896 0 8.208 1.044 8.208 7.164s-3.312 7.164-8.208 7.164zm43.671-14.616v-5.14801h-26.64v25.20001h26.64v-5.148h-20.16v-5.112h20.16v-4.68h-20.16v-5.112zm2.004 11.376c0 7.272 6.156 9.036 16.488 9.036 9.324 0 15.696-1.368 15.696-8.1 0-6.372-6.156-6.912-16.092-7.452-7.344-.432-8.856-.792-8.856-2.736 0-1.872 1.512-2.484 7.884-2.484 6.732 0 9.504.684 9.504 3.456h6.48c0-6.22801-5.76-8.60401-15.264-8.60401-9.432 0-15.084 1.764-15.084 7.30801 0 5.652 4.356 7.38 15.336 7.884 8.172.396 9.612.756 9.612 2.844 0 1.98-2.052 2.736-8.856 2.736-8.208 0-10.368-1.224-10.368-3.888zm41.012-16.52401h-6.48v25.20001h6.48zm17.748 15.91201h9.396c-.144 1.908-2.664 4.644-8.928 4.644-8.388 0-9.576-4.752-9.576-7.812 0-3.024 1.152-7.668 9.576-7.668 6.84 0 8.568 2.844 8.928 4.752h6.588c-.396-6.264-5.436-10.18801-15.516-10.18801-10.368 0-16.056 4.60801-16.056 12.96001s5.688 12.96 14.976 12.96c5.364 0 9.144-1.728 11.52-4.32l.288 3.96h4.788v-13.5h-15.984zm44.514-15.91201v18.93601l-17.208-18.93601h-8.784v25.20001h6.48v-18.9l17.172 18.9h8.82v-25.20001z" fill="#fff"/></svg>