<svg fill="none" height="190" viewBox="0 0 261 190" width="261" xmlns="http://www.w3.org/2000/svg" xmlns:xlink="http://www.w3.org/1999/xlink"><linearGradient id="a" gradientUnits="userSpaceOnUse" x1="10.739" x2="285.65" y1="14.1" y2="83.6921"><stop offset="0" stop-color="#313a65"/><stop offset="1" stop-color="#313a65" stop-opacity="0"/></linearGradient><path clip-rule="evenodd" d="m237.078 103.802c10.168-20.1935 12.399-41.1503 4.482-59.473-18.62-43.09362-86.321-55.2976-151.2149-27.2584-64.894 28.0392-102.4066 85.7034-83.78683 128.7974 18.61983 43.094 86.32103 55.298 151.21473 27.258 25.506-11.02 46.782-26.617 62.082-44.107 15.103 3.103 28.438 5.586 35.048 5.586 11.069 0-.848-14.017-17.825-30.803z" fill="#151f3f" fill-rule="evenodd"/><path d="m241.56 44.329.918-.3966zm-4.482 59.473-.894-.449-.327.649.517.511zm-146.7329-86.7314.3966.9179zm-83.78683 128.7974.91797-.397zm151.21473 27.258.397.918zm62.082-44.107.202-.98-.571-.117-.383.439zm20.787-84.2933c7.77 17.9821 5.615 38.6226-4.458 58.6273l1.787.899c10.264-20.3833 12.571-41.6564 4.507-60.3196zm-149.9003-26.7372c32.2913-13.9525 65.2413-17.872678 92.3863-12.97939 27.154 4.89485 48.379 18.57379 57.514 39.71659l1.836-.7933c-9.484-21.951-31.42-35.9208-58.995-40.89157-27.584-4.97234-60.932-.97493-93.5346 13.11177zm-83.26546 127.4825c-9.13528-21.142-4.54974-45.9735 10.49596-69.1018 15.041-23.121 40.4777-44.4281 72.7695-58.3807l-.7933-1.8359c-32.6022 14.0867-58.3687 35.6314-73.6526 59.1259-15.27914 23.4872-20.14001 49.0355-10.65551 70.9865zm149.90076 26.737c-32.292 13.953-65.2414 17.873-92.3866 12.98-27.154-4.895-48.3789-18.574-57.51416-39.717l-1.83595.794c9.48451 21.951 31.42011 35.92 58.99531 40.891 27.5838 4.972 60.9324.975 93.5344-13.112zm61.726-43.847c-15.195 17.369-36.346 32.881-61.726 43.847l.793 1.836c25.631-11.074 47.032-26.756 62.438-44.367zm35.8 5.244c-6.484 0-19.7-2.453-34.846-5.566l-.403 1.959c15.058 3.095 28.513 5.607 35.249 5.607zm-18.529-29.092c8.497 8.401 15.648 16.034 19.3 21.538.909 1.37 1.582 2.579 2.004 3.612.428 1.048.564 1.83.503 2.38-.054.488-.26.818-.681 1.068-.478.284-1.294.494-2.597.494v2c1.464 0 2.697-.227 3.619-.775.98-.582 1.527-1.479 1.647-2.567.113-1.027-.155-2.171-.64-3.356-.49-1.2-1.238-2.53-2.188-3.962-3.783-5.7-11.08-13.469-19.56-21.854z" fill="url(#a)"/><path d="m98.0112 75.4823-11.6276 8.4946 23.0524 31.0121 11.111-8.117zm15.3418 44.8687 6.323 8.656 11.047-8.07-6.324-8.656zm12.799-65.4267-11.628 8.4946 23.052 31.0121 11.111-8.117zm15.341 44.8684 6.324 8.6563 11.046-8.07-6.324-8.6562z" fill="#fff"/></svg>