<svg fill="none" height="59" viewBox="0 0 61 59" width="61" xmlns="http://www.w3.org/2000/svg"><path d="m29.5364 1.80059c.3994-.54744 1.2162-.54744 1.6157 0l5.2419 7.18439c.7182.98435 1.9605 1.43652 3.1434 1.14412l8.6336-2.13412c.6579-.16262 1.2836.3624 1.2377 1.03852l-.6025 8.873c-.0826 1.2157.5784 2.3606 1.6725 2.897l7.9855 3.9147c.6085.2983.7504 1.1027.2806 1.5911l-6.165 6.4099c-.8447.8782-1.0742 2.1801-.5809 3.2943l3.6009 8.1318c.2744.6197-.134 1.327-.8078 1.3992l-8.8428.9475c-1.2116.1298-2.2243.9796-2.5625 2.1502l-2.4687 8.544c-.1881.651-.9556.9304-1.5182.5526l-7.383-4.9583c-1.0116-.6794-2.3336-.6794-3.3451 0l-7.383 4.9583c-.5626.3778-1.3302.0984-1.5183-.5526l-2.4686-8.544c-.3382-1.1706-1.3509-2.0204-2.5625-2.1502l-8.84282-.9475c-.67381-.0722-1.08221-.7795-.80782-1.3992l3.60089-8.1318c.49336-1.1142.2638-2.4161-.58088-3.2943l-6.16498-6.4099c-.46977-.4884-.32793-1.2928.28056-1.5911l7.98545-3.9147c1.0941-.5364 1.7551-1.6813 1.6726-2.897l-.6025-8.873c-.0459-.67612.5798-1.20114 1.2377-1.03852l8.6336 2.13412c1.1829.2924 2.4252-.15977 3.1434-1.14412z" stroke="#fff" stroke-width="2"/></svg>