<svg fill="none" height="26" viewBox="0 0 26 26" width="26" xmlns="http://www.w3.org/2000/svg" xmlns:xlink="http://www.w3.org/1999/xlink"><linearGradient id="a" gradientUnits="userSpaceOnUse" x1="13.0489" x2="13.0489" y1="-1.04892" y2="27.0489"><stop offset="0" stop-color="#9fa6ff"/><stop offset="1" stop-color="#55ffad"/></linearGradient><path d="m12.2504 1.10908c.2743-.741285 1.3227-.741284 1.597 0l2.8601 7.72925c.0863.23306.27.41681.5031.50305l7.7292 2.86012c.7413.2743.7413 1.3227 0 1.597l-7.7292 2.8601c-.2331.0862-.4168.27-.5031.5031l-2.8601 7.7292c-.2743.7413-1.3227.7413-1.597 0l-2.8601-7.7292c-.08624-.2331-.26999-.4169-.50305-.5031l-7.72925-2.8601c-.741285-.2743-.741285-1.3227 0-1.597l7.72925-2.86012c.23306-.08624.41681-.26999.50305-.50305z" fill="url(#a)"/></svg>