<svg fill="none" height="57" viewBox="0 0 97 57" width="97" xmlns="http://www.w3.org/2000/svg" xmlns:xlink="http://www.w3.org/1999/xlink"><filter id="a" color-interpolation-filters="sRGB" filterUnits="userSpaceOnUse" height="56" width="51.0298" x=".5" y=".31665"><feFlood flood-opacity="0" result="BackgroundImageFix"/><feColorMatrix in="SourceAlpha" result="hardAlpha" type="matrix" values="0 0 0 0 0 0 0 0 0 0 0 0 0 0 0 0 0 0 127 0"/><feOffset/><feGaussianBlur stdDeviation="5"/><feComposite in2="hardAlpha" operator="out"/><feColorMatrix type="matrix" values="0 0 0 0 0.615686 0 0 0 0 0.643137 0 0 0 0 1 0 0 0 0.6 0"/><feBlend in2="BackgroundImageFix" mode="normal" result="effect1_dropShadow_111_35839"/><feBlend in="SourceGraphic" in2="effect1_dropShadow_111_35839" mode="normal" result="shape"/></filter><g filter="url(#a)"><path d="m38.7119 40.634c.705.8503.5924 2.1217-.3308 2.7281-2.4003 1.5764-5.1518 2.5611-8.0274 2.8588-3.5411.3667-7.1114-.325-10.2595-1.9875-3.148-1.6625-5.7324-4.2212-7.4262-7.3524-1.6939-3.1313-2.4212-6.6946-2.0899-10.2392.3312-3.5446 1.7062-6.9114 3.9509-9.6746s5.2584-4.7987 8.6599-5.8492c3.4016-1.0504 7.0383-1.0686 10.4502-.0522 2.7706.8254 5.2919 2.3029 7.3586 4.2967.7949.767.67 2.0372-.1804 2.7422l-10.7776 8.9355c-.8504.7049-.9682 1.9658-.2632 2.8161z" fill="#9da4ff"/></g><g fill="#fff"><circle cx="57.5" cy="28.3167" r="3"/><circle cx="75.5" cy="28.3167" r="3"/><circle cx="93.5" cy="28.3167" r="3"/></g></svg>