<svg fill="none" height="206" viewBox="0 0 253 206" width="253" xmlns="http://www.w3.org/2000/svg" xmlns:xlink="http://www.w3.org/1999/xlink"><filter id="a" color-interpolation-filters="sRGB" filterUnits="userSpaceOnUse" height="47.4541" width="45.6804" x="206.881" y="158.252"><feFlood flood-opacity="0" result="BackgroundImageFix"/><feColorMatrix in="SourceAlpha" result="hardAlpha" type="matrix" values="0 0 0 0 0 0 0 0 0 0 0 0 0 0 0 0 0 0 127 0"/><feOffset/><feGaussianBlur stdDeviation="5"/><feComposite in2="hardAlpha" operator="out"/><feColorMatrix type="matrix" values="0 0 0 0 1 0 0 0 0 1 0 0 0 0 1 0 0 0 0.6 0"/><feBlend in2="BackgroundImageFix" mode="normal" result="effect1_dropShadow_99_5424"/><feBlend in="SourceGraphic" in2="effect1_dropShadow_99_5424" mode="normal" result="shape"/></filter><g filter="url(#a)"><path d="m220.821 168.561c-2.382-1.217-4.893 1.4-3.579 3.729l3.226 5.717c1.346 2.388 1.377 5.298.081 7.713l-3.218 5.997c-1.285 2.396 1.378 4.974 3.73 3.611l20.154-11.671c1.85-1.071 1.779-3.766-.125-4.738z" fill="#fff"/></g><g fill="#fff"><circle cx="3.61011" cy="3" r="3"/><circle cx="21.6101" cy="3" r="3"/><circle cx="39.6101" cy="3" r="3"/><circle cx="57.6101" cy="183" r="3"/><circle cx="75.6101" cy="183" r="3"/><circle cx="93.6101" cy="183" r="3"/><circle cx="111.61" cy="183" r="3"/><circle cx="129.61" cy="183" r="3"/><circle cx="147.61" cy="183" r="3"/><circle cx="165.61" cy="183" r="3"/><circle cx="183.61" cy="183" r="3"/><circle cx="201.61" cy="183" r="3"/><circle cx="57.6101" cy="3" r="3"/><circle cx="57.6101" cy="21" r="3"/><circle cx="57.6101" cy="39" r="3"/><circle cx="57.6101" cy="57" r="3"/><circle cx="57.6101" cy="75" r="3"/><circle cx="57.6101" cy="93" r="3"/><circle cx="57.6101" cy="111" r="3"/><circle cx="57.6101" cy="129" r="3"/><circle cx="57.6101" cy="147" r="3"/><circle cx="57.6101" cy="165" r="3"/></g></svg>