<svg width="56" height="61" viewBox="0 0 56 61" fill="none" xmlns="http://www.w3.org/2000/svg">
<path d="M1.89141 0.315247C1.16953 0.315247 0.691406 0.793372 0.691406 1.51525V59.1152C0.691406 59.8371 1.16953 60.3153 1.89141 60.3153H6.69141C7.41328 60.3153 7.89141 59.8371 7.89141 59.1152V38.7152H54.6914C55.3523 38.7152 55.8914 38.1762 55.8914 37.5152V1.51525C55.8914 0.854309 55.3523 0.315247 54.6914 0.315247H1.89141ZM7.89141 2.71525H18.6914V13.5152H30.6914V2.71525H42.6914V13.5152H53.4914V25.5152H42.6914V36.3152H30.6914V25.5152H18.6914V36.3152H7.89141V25.5152H18.6914V13.5152H7.89141V2.71525ZM30.6914 25.5152H42.6914V13.5152H30.6914V25.5152Z" fill="white"/>
</svg>
