<svg fill="none" height="58" viewBox="0 0 287 58" width="287" xmlns="http://www.w3.org/2000/svg" xmlns:xlink="http://www.w3.org/1999/xlink"><linearGradient id="a" gradientUnits="userSpaceOnUse" x1="143.098" x2="143.098" y1="0" y2="58"><stop offset="0" stop-color="#9fa6ff"/><stop offset="1" stop-color="#55ffad"/></linearGradient><path d="m42.4817 9.4h2v-2h-2zm-24.576 0v-2h-2v2zm0 7.248h-2v2h2zm15.936 0h2v-2h-2zm-23.04 9.504h2v-2h-2zm-8.64004 0v-2h-2.000004v2zm40.32004-18.752h-24.576v4h24.576zm-26.576 2v7.248h4v-7.248zm2 9.248h15.936v-4h-15.936zm13.936-2v9.504h4v-9.504zm0 9.504c0 2.2148-.3275 4.1326-1.4676 5.5117-1.0798 1.3063-3.2702 2.5683-8.0524 2.5683v4c5.4417 0 9.0113-1.45 11.1355-4.0197 2.0639-2.4969 2.3845-5.6191 2.3845-8.0603zm-9.52 8.08c-4.788 0-6.977-1.2531-8.0545-2.5526-1.1369-1.3711-1.4655-3.2852-1.4655-5.5274h-4.00004c0 2.4618.31934 5.5877 2.38644 8.0806 2.1265 2.5645 5.6975 3.9994 11.1336 3.9994zm-11.52-10.08h-8.64004v4h8.64004zm-10.640044 2c0 6.2094 1.689504 11.1931 5.586764 14.5679 3.83611 3.3219 9.44688 4.7601 16.57328 4.7601v-4c-6.6977 0-11.1669-1.3698-13.95481-3.7839-2.72674-2.3612-4.20523-6.0415-4.20523-11.5441zm22.160044 19.328c7.1077 0 12.7158-1.4525 16.5554-4.7783 3.8995-3.3777 5.6046-8.3579 5.6046-14.5497h-4c0 5.4722-1.487 9.156-4.2235 11.5263-2.7964 2.4222-7.2683 3.8017-13.9365 3.8017zm22.16-19.328v-16.752h-4v16.752zm25.8006 19.328c7.5983 0 13.4343-1.5889 17.3858-4.968 4.0136-3.4322 5.7342-8.4055 5.7342-14.36h-4c0 5.1815-1.4714 8.8722-4.3338 11.32-2.9246 2.5009-7.6485 4.008-14.7862 4.008zm23.12-19.328c0-5.9334-1.7225-10.8844-5.7388-14.2979-3.9516-3.35854-9.786-4.9341-17.3812-4.9341v4c7.1408 0 11.8663 1.4964 14.7908 3.9819 2.8596 2.4305 4.3292 6.0955 4.3292 11.2501zm-23.12-19.232c-7.6142 0-13.451 1.56144-17.399 4.9159-4.0143 3.4107-5.721 8.3652-5.721 14.3161h4c0-5.1851 1.4612-8.8466 4.311-11.2679 2.916-2.4775 7.6391-3.9641 14.809-3.9641zm-23.12 19.232c0 5.9721 1.7049 10.9488 5.7164 14.3782 3.9479 3.3751 9.7863 4.9498 17.4036 4.9498v-4c-7.1668 0-11.8883-1.4973-14.8044-3.9902-2.8525-2.4386-4.3156-6.1259-4.3156-11.3378zm23.12 8.08c-4.3325 0-6.8731-.7805-8.3297-1.9878-1.3635-1.1301-2.1503-2.957-2.1503-6.0922h-4c0 3.7768.9651 6.9899 3.5977 9.1718 2.5393 2.1047 6.2388 2.9082 10.8823 2.9082zm-10.48-8.08c0-3.1144.7763-4.9111 2.1263-6.0212 1.4489-1.1915 3.9891-1.9628 8.3537-1.9628v-4c-4.6595 0-8.3592.7887-10.8943 2.8732-2.634 2.1659-3.5857 5.3612-3.5857 9.1108zm10.48-7.984c4.3586 0 6.9002.7812 8.3509 1.9785 1.3548 1.1181 2.1291 2.9191 2.1291 6.0055h4c0-3.7296-.9537-6.9206-3.583-9.0905-2.5332-2.0907-6.2316-2.8935-10.897-2.8935zm10.48 7.984c0 3.1073-.7849 4.9384-2.153 6.0764-1.4585 1.2133-4.0005 2.0036-8.327 2.0036v4c4.6494 0 8.3475-.8177 10.885-2.9284 2.6278-2.186 3.595-5.3949 3.595-9.1516zm26.2667-16.752h2v-2h-2zm-8.6405 0v-2h-2v2zm0 33.6h-2v2h2zm8.6405 0v2h2v-2zm0-35.6h-8.6405v4h8.6405zm-10.6405 2v33.6h4.0005v-33.6zm2 35.6h8.6405v-4h-8.6405zm10.6405-2v-33.6h-4v33.6zm40.324-33.6v-2h-2v2zm0 25.248-1.48 1.3451 3.48 3.8296v-5.1747zm-22.944-25.248 1.48-1.34507-.595-.65493h-.885zm-11.712 0v-2h-2v2zm0 33.6h-2v2h2zm8.64 0v2h2v-2zm0-25.2 1.481-1.3449-3.481-3.8305v5.1754zm22.896 25.2-1.48 1.3449.595.6551h.885zm11.76 0v2h2v-2zm0-33.6h2v-2h-2zm-10.64 0v25.248h4v-25.248zm3.48 23.9029-22.944-25.24797-2.96 2.69017 22.944 25.248zm-24.424-25.9029h-11.712v4h11.712zm-13.712 2v33.6h4v-33.6zm2 35.6h8.64v-4h-8.64zm10.64-2v-25.2h-4v25.2zm-3.48-23.8551 22.896 25.2 2.961-2.6898-22.896-25.2zm24.376 25.8551h11.76v-4h-11.76zm13.76-2v-33.6h-4v33.6zm-2-35.6h-8.64v4h8.64zm75.999 2h2v-2h-2zm-8.64 0v-2h-2v2zm-24.96 0h2v-2h-2zm-8.64 0v-2h-2v2zm44.24 16.752v-16.752h-4v16.752zm-2-18.752h-8.64v4h8.64zm-10.64 2v16.752h4v-16.752zm0 16.752c0 2.211-.327 4.0916-1.541 5.4576-1.183 1.3312-3.623 2.6224-8.939 2.6224v4c5.869 0 9.668-1.4208 11.929-3.9656 2.231-2.51 2.551-5.6694 2.551-8.1144zm-10.48 8.08c-5.321 0-7.76-1.2819-8.941-2.6067-1.21-1.3581-1.539-3.2348-1.539-5.4733h-4c0 2.4655.32 5.6288 2.553 8.1347 2.263 2.5392 6.064 3.9453 11.927 3.9453zm-10.48-8.08v-16.752h-4v16.752zm-2-18.752h-8.64v4h8.64zm-10.64 2v16.752h4v-16.752zm0 16.752c0 6.2118 1.692 11.2133 5.734 14.5907 3.961 3.3099 9.807 4.7373 17.386 4.7373v-4c-7.205 0-11.918-1.3806-14.821-3.8067-2.823-2.3586-4.299-6.0211-4.299-11.5213zm23.12 19.328c7.561 0 13.405-1.4414 17.369-4.7555 4.044-3.3804 5.751-8.3782 5.751-14.5725h-4c0 5.4697-1.484 9.1359-4.316 11.5035-2.912 2.4339-7.628 3.8245-14.804 3.8245zm28.084-14.048v-2h-2v2zm21.456-8.688-.117 1.9966.008.0005zm11.376-2.352h-2v2h2zm8.64 0v2h2v-2zm-20.016 8.784.097-1.9977-.005-.0002zm-12.816 2.256h2v-2h-2zm-10.64 0c0 2.7096.576 5.061 1.799 7.0289 1.226 1.9717 3.008 3.4069 5.166 4.4363 4.215 2.0101 10.112 2.5828 17.019 2.5828v-4c-6.869 0-11.963-.6033-15.297-2.1932-1.616-.7706-2.747-1.7414-3.491-2.9377-.746-1.2001-1.196-2.7787-1.196-4.9171zm23.984 14.048c6.224 0 11.825-.4414 15.915-2.196 2.089-.8966 3.88-2.1745 5.136-3.9925 1.264-1.8274 1.877-4.0407 1.877-6.6115h-4c0 1.9172-.449 3.2979-1.167 4.337-.725 1.0485-1.835 1.9096-3.424 2.591-3.266 1.4014-8.129 1.872-14.337 1.872zm22.928-12.8c0-2.4587-.6-4.5545-1.902-6.2525-1.286-1.6767-3.105-2.7676-5.182-3.5137-4.044-1.4527-9.743-1.8125-16.263-2.1669l-.218 3.9942c6.728.3656 11.757.7258 15.129 1.9371 1.631.5859 2.692 1.313 3.359 2.1833.651.849 1.077 2.0292 1.077 3.8185zm-23.339-11.9326c-4.979-.2929-7.665-.5531-9.121-.9878-.694-.2072-.81-.3742-.787-.3467.058.0712-.017.0763-.017-.3169h-4c0 .9028.177 1.9399.919 2.8481.707.8644 1.707 1.3395 2.741 1.6483 2 .5973 5.218.8651 10.031 1.1481zm-9.925-1.6514c0-.1812.019-.2817.032-.3294.006-.0225.011-.033.012-.0356.001-.0021.001-.0023.002-.0028 0-.0007.006-.008.021-.0215.015-.014.043-.0369.09-.0667.097-.0613.264-.1459.539-.2365 1.216-.4005 3.528-.6195 7.816-.6195v-4c-4.207 0-7.151.189-9.068.8205-1.007.3317-1.941.8499-2.594 1.7183-.668.8868-.85 1.8813-.85 2.7732zm8.512-1.312c4.515 0 7.369.2419 9.063.8131.807.2723 1.166.5615 1.333.769.142.1765.276.4535.276 1.0259h4c0-1.2756-.328-2.4986-1.159-3.5326-.807-1.003-1.933-1.6348-3.172-2.0525-2.398-.8088-5.88-1.0229-10.341-1.0229zm12.672 4.608h8.64v-4h-8.64zm10.64-2c0-2.3954-.558-4.5302-1.703-6.3579-1.142-1.822-2.793-3.2193-4.795-4.26489-3.939-2.05702-9.421-2.84921-15.854-2.84921v4c6.239 0 10.933.7918 14.002 2.3948 1.502.7844 2.563 1.7361 3.257 2.8436.691 1.1018 1.093 2.477 1.093 4.2336zm-22.352-13.472c-6.337 0-11.717.58058-15.574 2.26768-1.962.85842-3.624 2.04322-4.79 3.67032-1.178 1.6449-1.748 3.5994-1.748 5.806h4c0-1.4894.373-2.6009 1-3.476.64-.8929 1.648-1.6821 3.142-2.3357 3.055-1.3369 7.731-1.9323 13.97-1.9323zm-22.112 11.744c0 2.1396.413 4.0795 1.422 5.7577 1.014 1.6868 2.527 2.9387 4.435 3.8696 3.695 1.8037 9.192 2.5472 16.499 2.8826l.184-3.9958c-7.333-.3366-12.06-1.0811-14.929-2.4814-1.374-.6711-2.228-1.4502-2.761-2.3359-.537-.8944-.85-2.0684-.85-3.6968zm22.351 12.5097c5.538.2683 8.469.5195 10.034.9732.744.2157.86.3944.838.3657-.047-.0585.041-.0309.041.4554h4c0-.9057-.152-1.9821-.899-2.9301-.723-.9182-1.768-1.4145-2.866-1.7328-2.119-.6143-5.596-.8671-10.954-1.1268zm10.913 1.7943c0 .2869-.062.352-.089.384-.067.0785-.308.2963-1.023.5252-1.486.4759-4.149.7388-8.696.7388v4c4.525 0 7.766-.2411 9.916-.9292 1.103-.3531 2.113-.8823 2.843-1.7353.769-.8996 1.049-1.9504 1.049-2.9835zm-9.808 1.648c-5.47 0-8.571-.4223-10.26-1.1118-.793-.3233-1.127-.6483-1.286-.8836-.156-.2305-.278-.5732-.278-1.1886h-4c0 1.1606.238 2.3539.964 3.4284.723 1.0697 1.793 1.8187 3.088 2.3474 2.487 1.0145 6.298 1.4082 11.772 1.4082zm-13.824-5.184h-8.64v4h8.64z" fill="url(#a)"/></svg>