<svg fill="none" height="144" viewBox="0 0 198 144" width="198" xmlns="http://www.w3.org/2000/svg" xmlns:xlink="http://www.w3.org/1999/xlink"><linearGradient id="a" gradientUnits="userSpaceOnUse" x1="189.925" x2="-18.2475" y1="11.1621" y2="63.8597"><stop offset="0" stop-color="#313a65"/><stop offset="1" stop-color="#313a65" stop-opacity="0"/></linearGradient><path clip-rule="evenodd" d="m18.5335 79.0879c-7.6999-15.2915-9.38917-31.1608-3.3943-45.0353 14.0996-32.63213 65.3655-41.87346 114.5058-20.6411 49.14 21.2323 77.546 64.898 63.446 97.5305-14.099 32.632-65.365 41.873-114.5054 20.641-19.3139-8.345-35.4249-20.156-47.011-33.4002-11.4359 2.3502-21.5339 4.2302-26.53892 4.2302-8.38225 0 .64202-10.6147 13.49782-23.3251z" fill="#151f3f" fill-rule="evenodd"/><path d="m15.1392 34.0526-.9179-.3967zm3.3943 45.0353.8932-.4498.3271.6496-.5172.5113zm111.1115-65.6764-.397.9179zm63.446 97.5305-.918-.397zm-114.5054 20.641.3967-.918zm-47.011-33.4002-.2012-.9795.5704-.1172.3835.4383zm-15.5174-63.7336c-5.8478 13.534-4.235 29.087 3.3695 44.1889l-1.7863.8995c-7.79543-15.481-9.56118-31.6666-3.4191-45.8817zm113.1908-20.1198c-24.415-10.54906-49.3166-13.508187-69.8188-9.81241-20.5108 3.69735-36.4968 14.02031-43.372 29.93221l-1.8359-.7933c7.2243-16.7201 23.9211-27.33392 44.8531-31.10718 20.9407-3.77484 46.2416-.73848 70.9666 9.94478zm62.925 96.2156c6.875-15.912 3.436-34.628-7.928-52.0981-11.36-17.4627-30.582-33.5684-54.997-44.1175l.793-1.8359c24.726 10.6832 44.277 27.0266 55.88 44.8628 11.598 17.8288 15.313 37.2618 8.088 53.9817zm-113.1907 20.12c24.4147 10.549 49.3167 13.508 69.8187 9.812 20.511-3.697 36.497-14.02 43.372-29.932l1.836.793c-7.224 16.72-23.921 27.334-44.853 31.107-20.941 3.775-46.242.739-70.967-9.944zm-46.655-33.1406c11.4807 13.1236 27.4668 24.8496 46.655 33.1406l-.7933 1.836c-19.4397-8.4-35.6756-20.295-47.367-33.6598zm-27.29162 3.8886c4.8787 0 14.85772-1.8509 26.33772-4.2097l.4025 1.959c-11.3919 2.3407-21.6089 4.2507-26.74022 4.2507zm14.20092-21.614c-6.4357 6.3629-11.83291 12.1265-14.58305 16.2708-.68344 1.0299-1.18326 1.9305-1.49471 2.6927-.31736.7766-.40388 1.3255-.36428 1.6835.03273.296.14717.477.39794.626.30842.184.87601.341 1.84318.341v2c-1.12839 0-2.11242-.174-2.86469-.621-.80991-.481-1.265213-1.229-1.364334-2.126-.09227-.8356.127258-1.746.500804-2.6601.37948-.9286.95543-1.9506 1.67963-3.042 2.8804-4.3406 8.42321-10.2396 14.84331-16.5872z" fill="url(#a)"/><path d="m98.1991 44.4339c-10.511-5.6558-19.7605-3.7284-25.0978 6.1908-6.4442 11.9763-2.1746 19.034 15.184 28.3743l2.4501-3.8781c-12.2863-6.611-18.5166-11.3078-12.8154-21.9034 4.4579-8.2848 11.545-8.2869 18.3926-4.6023 3.4943 1.8801 8.4344 5.1925 6.0674 10.605-.712-2.5269-2.7215-4.7348-6.077-6.4676-5.1178-2.6448-10.5472-3.4949-14.0346 2.9864-3.5026 6.5095.1376 10.6848 5.2402 13.3577 3.3686 1.7762 6.3466 2.2522 8.8626 1.4257l-1.2434 2.3107 4.8469 2.608 6.2323-11.5818c4.321-8.0312 2.334-13.8607-8.0079-19.4254zm-7.1978 21.3458c-4.086-2.1986-5.5063-4.489-3.9142-7.4479 1.5921-2.9588 4.286-3.0355 8.3721-.8369 3.8888 2.0925 5.3418 4.255 4.1438 6.9537l-.5004.9299c-1.6074 2.5146-4.2125 2.4937-8.1013.4012zm44.7727-1.1278c-10.511-5.6557-19.761-3.7284-25.098 6.1908-6.444 11.9764-2.175 19.034 15.184 28.3743l2.45-3.8781c-12.286-6.6109-18.517-11.3078-12.815-21.9033 4.458-8.2849 11.545-8.287 18.392-4.6024 3.495 1.8802 8.435 5.1925 6.068 10.605-.712-2.5269-2.722-4.7348-6.077-6.4676-5.118-2.6448-10.548-3.4949-14.035 2.9864-3.503 6.5095.138 10.6848 5.24 13.3578 3.369 1.7761 6.347 2.2521 8.863 1.4256l-1.244 2.3107 4.847 2.608 6.232-11.5818c4.322-8.0312 2.335-13.8607-8.007-19.4254zm-7.198 21.3458c-4.086-2.1986-5.506-4.489-3.914-7.4479 1.592-2.9588 4.286-3.0355 8.372-.8369 3.889 2.0925 5.341 4.255 4.144 6.9537l-.501.9299c-1.607 2.5146-4.212 2.4937-8.101.4012z" fill="#fff"/></svg>