<svg fill="none" height="86" viewBox="0 0 42 86" width="42" xmlns="http://www.w3.org/2000/svg" xmlns:xlink="http://www.w3.org/1999/xlink"><mask id="a" fill="#fff"><path clip-rule="evenodd" d="m11.2108 13.9682c-.5144 4.0731.6261 7.9738 2.8976 11.0265.9917 1.3328.5109 3.6019-.9351 4.4198-4.05446 2.2935-7.01218 6.4066-7.64074 11.3834-.54274 4.2972.75665 8.4026 3.28273 11.5226 1.07316 1.3255.64745 3.7398-.81356 4.6196-3.86869 2.3296-6.67053 6.3448-7.280308 11.1729-1.056653 8.3662 4.868938 16.005 13.235178 17.0617 8.3662 1.0566 16.005-4.869 17.0616-13.2352.5428-4.2973-.7566-8.4027-3.2827-11.5227-1.0731-1.3255-.6474-3.7398.8136-4.6196 3.8687-2.3296 6.6705-6.3448 7.2803-11.1729.5144-4.0731-.6261-7.9738-2.8976-11.0265-.9917-1.3328-.5108-3.6019.9351-4.4198 4.0545-2.2935 7.0122-6.4066 7.6408-11.3833 1.0566-8.36628-4.869-16.00505-13.2352-17.061699-8.3663-1.056653-16.005 4.868939-17.0617 13.235199z" fill="#fff" fill-rule="evenodd"/></mask><path d="m32.9318 33.5978-1.6045 1.1939zm.9351-4.4198-.9847-1.7408zm-25.05161 23.1425 1.55441-1.2585zm-.81356 4.6196-1.03172-1.7133zm5.17157-27.5256-.9847-1.7408zm2.5396-5.6137c-1.9755-2.6549-2.965-6.0416-2.5178-9.582l-3.9685-.5012c-.58172 4.6058.70984 9.0206 3.2772 12.471zm-8.1961 17.2477c.54606-4.3236 3.1129-7.8973 6.6412-9.8932l-1.9694-3.4816c-4.58059 2.5911-7.92921 7.2436-8.64028 12.8736zm2.8529 10.0135c-2.19744-2.7141-3.32459-6.2789-2.8529-10.0135l-3.96848-.5012c-.6138 4.8598.85785 9.5058 3.71256 13.0317zm-7.66404 17.3016c.52978-4.1946 2.96126-7.6829 6.32779-9.7101l-2.06344-3.4267c-4.37086 2.6319-7.543044 7.1741-8.23283 12.6356zm11.50154 14.8268c-7.27037-.9182-12.41979-7.5564-11.50154-14.8268l-3.96848-.5012c-1.19506 9.4621 5.50671 18.1014 14.96882 19.2965zm14.8268-11.5015c-.9182 7.2704-7.5564 12.4198-14.8268 11.5015l-.5012 3.9685c9.4621 1.1951 18.1014-5.5067 19.2965-14.9688zm-2.8529-10.0136c2.1975 2.7141 3.3246 6.2789 2.8529 10.0136l3.9685.5012c.6138-4.8599-.8579-9.5058-3.7126-13.0318zm7.6641-17.3016c-.5298 4.1947-2.9613 7.683-6.3278 9.7102l2.0634 3.4267c4.3709-2.632 7.543-7.1742 8.2328-12.6357zm-2.5179-9.582c1.9755 2.6549 2.965 6.0416 2.5179 9.582l3.9684.5012c.5817-4.6058-.7098-9.0206-3.2772-12.471zm8.1961-17.2477c-.546 4.3236-3.1129 7.8973-6.6412 9.8932l1.9694 3.4816c4.5806-2.5911 7.9292-7.2436 8.6403-12.8735zm-11.5015-14.82676c7.2704.91824 12.4198 7.55646 11.5015 14.82676l3.9685.5013c1.1951-9.46214-5.5067-18.1014759-14.9688-19.29654zm-14.8268 11.50156c.9182-7.27039 7.5564-12.41981 14.8268-11.50156l.5012-3.96848c-9.4621-1.19506-18.1014 5.5067-19.2965 14.96884zm21.3413 18.1851c-.0809-.1087-.1802-.3902-.0945-.7949s.2907-.6229.4097-.6902l-1.9694-3.4816c-1.327.7506-2.0853 2.0759-2.3536 3.3435-.2683 1.2675-.1121 2.787.7987 4.011zm-5.2465 26.7544c-.0865-.1068-.2091-.4125-.1282-.8714.0808-.4588.3006-.705.4191-.7763l-2.0634-3.4267c-1.3426.8084-2.0661 2.2093-2.2951 3.509-.2289 1.2996-.0278 2.8638.9588 4.0824zm-22.02902-5.5793c.08653.1069.20912.4126.12828.8714-.08084.4589-.3007.705-.41915.7764l2.06344 3.4267c1.34255-.8085 2.06605-2.2094 2.29505-3.509s.0278-2.8639-.9588-4.0825zm5.24292-27.3904c.0809.1087.1802.3903.0945.7949-.0856.4047-.2907.6229-.4097.6902l1.9694 3.4816c1.327-.7506 2.0853-2.0759 2.3536-3.3434.2683-1.2676.1121-2.7871-.7987-4.0111z" fill="#fff" mask="url(#a)"/></svg>