<svg fill="none" height="152" viewBox="0 0 193 152" width="193" xmlns="http://www.w3.org/2000/svg" xmlns:xlink="http://www.w3.org/1999/xlink"><linearGradient id="a" gradientUnits="userSpaceOnUse" x1="185.081" x2="-6.77773" y1="32.9675" y2="52.3164"><stop offset="0" stop-color="#313a65"/><stop offset="1" stop-color="#313a65" stop-opacity="0"/></linearGradient><path clip-rule="evenodd" d="m23.9154 71.0057c-4.8262-14.6356-4.2378-28.9974 2.9129-40.5736 16.818-27.22667 63.5671-28.73502 104.4167-3.369 40.85 25.366 60.332 68.0007 43.514 95.2269-16.818 27.227-63.567 28.735-104.4168 3.369-16.0556-9.969-28.8103-22.607-37.3575-35.928-10.4663.5934-19.6826.9441-24.12789.2874-7.44484-1.0997 1.96739-9.3739 15.05859-19.0127z" fill="#151f3f" fill-rule="evenodd"/><path d="m26.8283 30.4321-.8507-.5256zm-2.9129 40.5735.9496-.3131.2271.6885-.5838.4299zm107.3296-43.9425-.527.8495zm43.514 95.2269.851.526zm-104.4168 3.369-.5276.85zm-37.3575-35.928-.0566-.9984.583-.033.3153.4914zm-5.3056-58.7734c-6.9563 11.2617-7.5739 25.3004-2.8141 39.7349l-1.8993.6263c-4.8925-14.8366-4.3332-29.5214 3.0119-41.4123zm103.0389-3.045c-20.281-12.5936-41.9886-18.49025-60.6609-17.8878-18.6806.6027-34.2 7.6935-42.378 20.9328l-1.7015-1.0511c8.64-13.9873 24.9041-21.26405 44.015-21.88066 19.1192-.61687 41.2114 5.41526 61.7804 18.18766zm43.19 93.8524c8.179-13.24 7.596-30.332-.19-47.3704-7.782-17.0303-22.719-33.8885-43-46.482l1.055-1.6991c20.569 12.7725 35.797 29.9147 43.764 47.3499 7.964 17.4271 8.713 35.2656.073 49.2526zm-103.0383 3.045c20.281 12.593 41.9883 18.49 60.6603 17.888 18.681-.603 34.2-7.694 42.378-20.933l1.702 1.051c-8.64 13.987-24.904 21.264-44.015 21.881-19.119.617-41.2114-5.416-61.7804-18.188zm-37.0433-35.619c8.4608 13.187 21.1043 25.722 37.0433 35.619l-1.0551 1.699c-16.1722-10.042-29.038-22.782-37.6715-36.238zm-24.82345-.1618c4.31995.6381 13.41385.2994 23.92515-.2966l.1132 1.9968c-10.4212.5908-19.76.9535-24.33062.2783zm15.50535-17.2183c-6.5543 4.8259-12.0985 9.2477-15.07873 12.5709-.74012.8253-1.29805 1.5569-1.67052 2.1876-.38039.6441-.52059 1.1052-.53177 1.4068-.00886.2396.05696.3854.23416.5299.22904.1868.69101.3974 1.54151.5231l-.29227 1.9785c-1.01071-.1493-1.88318-.4378-2.51326-.9517-.68191-.5561-.99991-1.3124-.96876-2.1538.02884-.7793.3525-1.5781.80829-2.3498.46374-.7853 1.11437-1.6257 1.90366-2.5058 3.13749-3.4985 8.84499-8.0332 15.38179-12.8462z" fill="url(#a)"/><path d="m96.2428 85.3778c5.9012-5.3793 18.4212 9.7278 26.7282-.0631 5.9-6.9542 1.468-14.8066-8.872-23.5793-10.203-8.6563-19.7247-12.6433-28.3421-2.4864l8.2352 6.9871c3.8818-4.5751 8.0229-2.8714 14.7029 2.796 5.902 5.0074 7.089 8.0602 5.264 10.2105-4.968 5.8562-16.6118-11.0254-25.5398-.5026zm-11.0454-2.8404-5.2015 6.1307 7.8235 6.6378 5.2015-6.1307z" fill="#fff"/></svg>