<svg fill="none" height="105" viewBox="0 0 577 105" width="577" xmlns="http://www.w3.org/2000/svg" xmlns:xlink="http://www.w3.org/1999/xlink"><filter id="a" color-interpolation-filters="sRGB" filterUnits="userSpaceOnUse" height="76.8" width="565.531" x="1.84009" y="13.5713"><feFlood flood-opacity="0" result="BackgroundImageFix"/><feColorMatrix in="SourceAlpha" result="hardAlpha" type="matrix" values="0 0 0 0 0 0 0 0 0 0 0 0 0 0 0 0 0 0 127 0"/><feOffset/><feGaussianBlur stdDeviation="5"/><feComposite in2="hardAlpha" operator="out"/><feColorMatrix type="matrix" values="0 0 0 0 0.615686 0 0 0 0 0.643137 0 0 0 0 1 0 0 0 0.6 0"/><feBlend in2="BackgroundImageFix" mode="normal" result="effect1_dropShadow_2977_21960"/><feBlend in="SourceGraphic" in2="effect1_dropShadow_2977_21960" mode="normal" result="shape"/></filter><g filter="url(#a)"><path d="m80.6401 24.3713h-68.8v12.08h27.2v43.92h14.4v-43.92h27.2zm80.7339 0v21.92h-45.6v-21.92h-14.4v56h14.4v-21.92h45.6v21.92h14.4v-56zm95.982 11.44v-11.44h-59.2v56h59.2v-11.44h-44.8v-11.36h44.8v-10.4h-44.8v-11.36zm133.875.64v-12.08h-59.2v56h14.4v-17.52h40v-12.16h-40v-14.24zm84.832 4.72c0-13.92-11.28-17.6-30.56-17.6-18.56 0-31.68 4.16-31.68 22.8h14.4c0-8.88 5.68-10.72 18.08-10.72s15.36 2 15.36 6.64c0 12.72-49.12 7.52-49.12 30.8v7.28h62.72v-12.08h-42.56c3.52-11.12 43.36-5.44 43.36-27.12zm81.308-5.36v-11.44h-59.2v56h59.2v-11.44h-44.8v-11.36h44.8v-10.4h-44.8v-11.36z" fill="#9da4ff"/></g><path d="m71.4401 16.4856h-68.79998v12.08h27.19998v43.92h14.4v-43.92h27.2zm80.7349 0v21.92h-45.601v-21.92h-14.3995v56h14.3995v-21.92h45.601v21.92h14.4v-56zm95.981 11.44v-11.44h-59.2v56h59.2v-11.44h-44.8v-11.36h44.8v-10.4h-44.8v-11.36zm133.875.64v-12.08h-59.2v56h14.4v-17.52h40v-12.16h-40v-14.24zm84.832 4.72c0-13.92-11.28-17.6-30.56-17.6-18.56 0-31.68 4.16-31.68 22.8h14.4c0-8.88 5.68-10.72 18.08-10.72s15.36 2 15.36 6.64c0 12.72-49.12 7.52-49.12 30.8v7.28h62.72v-12.08h-42.56c3.52-11.12 43.36-5.44 43.36-27.12zm81.308-5.36v-11.44h-59.2v56h59.2v-11.44h-44.8v-11.36h44.8v-10.4h-44.8v-11.36z" fill="#55ffad"/><path d="m74.0687 20.4285h-68.80004v12.08h27.20004v43.92h14.4v-43.92h27.2zm80.7343 0v21.92h-45.6v-21.92h-14.4v56h14.4v-21.92h45.6v21.92h14.4v-56zm95.981 11.44v-11.44h-59.2v56h59.2v-11.44h-44.8v-11.36h44.8v-10.4h-44.8v-11.36zm133.875.64v-12.08h-59.2v56h14.4v-17.52h40v-12.16h-40v-14.24zm84.833 4.72c0-13.92-11.28-17.6-30.56-17.6-18.56 0-31.68 4.16-31.68 22.8h14.4c0-8.88 5.68-10.72 18.08-10.72s15.36 2 15.36 6.64c0 12.72-49.12 7.52-49.12 30.8v7.28h62.72v-12.08h-42.56c3.52-11.12 43.36-5.44 43.36-27.12zm81.308-5.36v-11.44h-59.2v56h59.2v-11.44h-44.8v-11.36h44.8v-10.4h-44.8v-11.36z" fill="#fff"/></svg>